<svg width="167" height="90" viewBox="0 0 167 90" fill="none" xmlns="http://www.w3.org/2000/svg">
<path d="M44.0578 0.250113C68.2472 0.250111 87.8656 20.2804 87.8656 45.0002C87.8656 69.72 68.2472 89.7502 44.0578 89.7502C19.8684 89.7502 0.249999 69.72 0.249998 45.0002C0.249997 20.2804 19.8684 0.250114 44.0578 0.250113Z" stroke="#FDFDFD" stroke-width="0.5"/>
<path d="M73.4294 0.250113C97.6188 0.250111 117.237 20.2804 117.237 45.0002C117.237 69.72 97.6188 89.7502 73.4294 89.7502C49.24 89.7502 29.6216 69.72 29.6216 45.0002C29.6216 20.2804 49.24 0.250114 73.4294 0.250113Z" stroke="#FDFDFD" stroke-width="0.5"/>
<path d="M97.7663 0.250113C121.956 0.250111 141.574 20.2804 141.574 45.0002C141.574 69.72 121.956 89.7502 97.7663 89.7502C73.5769 89.7502 53.9585 69.72 53.9585 45.0002C53.9585 20.2804 73.5769 0.250114 97.7663 0.250113Z" stroke="#FDFDFD" stroke-width="0.5"/>
<path d="M122.942 0.250113C147.131 0.250111 166.75 20.2804 166.75 45.0002C166.75 69.72 147.132 89.7502 122.942 89.7502C98.7527 89.7502 79.1343 69.72 79.1343 45.0002C79.1343 20.2804 98.7527 0.250114 122.942 0.250113Z" stroke="#FDFDFD" stroke-width="0.5"/>
</svg>
