<svg width="26" height="27" viewBox="0 0 26 27" fill="none" xmlns="http://www.w3.org/2000/svg">
<rect y="0.75" width="25.5" height="25.5" rx="12.75" fill="#181818"/>
<path d="M18.5162 12.7094L9.55382 7.54925C9.40271 7.46217 9.22965 7.41463 9.0525 7.41154C8.87535 7.40845 8.70054 7.44993 8.54611 7.53169C8.39316 7.61218 8.26574 7.72956 8.17697 7.87176C8.0882 8.01396 8.04127 8.17585 8.04102 8.34078V18.6599C8.04217 18.9073 8.14765 19.1441 8.33428 19.3184C8.52092 19.4926 8.77342 19.5899 9.03628 19.589C9.21975 19.5889 9.39966 19.5413 9.5563 19.4514L18.5162 14.2913C18.6602 14.2087 18.7792 14.0926 18.8618 13.9542C18.9444 13.8157 18.9878 13.6597 18.9878 13.5009C18.9878 13.3422 18.9444 13.1861 18.8618 13.0477C18.7792 12.9093 18.6602 12.7932 18.5162 12.7106V12.7094ZM9.03628 18.6488V8.34839L17.9831 13.5003L9.03628 18.6488Z" fill="#FDFDFD"/>
</svg>
