<svg width="26" height="27" viewBox="0 0 26 27" fill="none" xmlns="http://www.w3.org/2000/svg">
<rect x="0.5" y="0.75" width="25.5" height="25.5" rx="12.75" fill="#181818"/>
<g clip-path="url(#clip0_124_27)">
<path d="M12.7902 10.1176C12.6407 10.1176 12.4973 10.177 12.3915 10.2828C12.2858 10.3885 12.2264 10.5319 12.2264 10.6814V13.5003C12.2264 13.6498 12.2859 13.7932 12.3916 13.8989L14.0829 15.5902C14.1893 15.6929 14.3317 15.7497 14.4795 15.7484C14.6273 15.7472 14.7687 15.6879 14.8732 15.5833C14.9778 15.4788 15.0371 15.3374 15.0383 15.1896C15.0396 15.0418 14.9828 14.8994 14.8801 14.793L13.354 13.2669V10.6814C13.354 10.5319 13.2946 10.3885 13.1888 10.2828C13.0831 10.177 12.9397 10.1176 12.7902 10.1176ZM19.4495 12.4472C19.256 11.2214 18.729 10.0725 17.9264 9.12616C17.1237 8.1798 16.0762 7.47245 14.8985 7.08148C13.7207 6.69052 12.4582 6.63101 11.2489 6.90946C10.0396 7.18792 8.93021 7.79361 8.04208 8.66028V7.29876C8.04208 7.14924 7.98268 7.00584 7.87695 6.90011C7.77122 6.79438 7.62782 6.73499 7.4783 6.73499C7.32878 6.73499 7.18538 6.79438 7.07965 6.90011C6.97392 7.00584 6.91453 7.14924 6.91453 7.29876V9.55386C6.91453 9.85291 7.03332 10.1397 7.24478 10.3512C7.45623 10.5626 7.74303 10.6814 8.04208 10.6814H10.2972C10.4467 10.6814 10.5901 10.622 10.6958 10.5163C10.8016 10.4106 10.861 10.2672 10.861 10.1176C10.861 9.96812 10.8016 9.82472 10.6958 9.71899C10.5901 9.61326 10.4467 9.55386 10.2972 9.55386H8.74623C9.64714 8.63921 10.8335 8.0598 12.1088 7.91164C13.384 7.76347 14.6716 8.05544 15.7583 8.73917C16.8449 9.4229 17.6653 10.4574 18.0836 11.6711C18.5019 12.8849 18.4929 14.2052 18.0582 15.4132C17.6235 16.6212 16.7891 17.6444 15.6933 18.3133C14.5975 18.9823 13.306 19.2567 12.0329 19.0913C10.7598 18.9258 9.58139 18.3304 8.69297 17.4036C7.80455 16.4768 7.25943 15.2743 7.14793 13.9953C7.13331 13.8579 7.06782 13.7309 6.96433 13.6393C6.86085 13.5477 6.72685 13.4981 6.58866 13.5003C6.50982 13.5005 6.43188 13.5171 6.35981 13.5491C6.28775 13.5811 6.22314 13.6278 6.1701 13.6861C6.11706 13.7445 6.07676 13.8132 6.05176 13.888C6.02676 13.9628 6.01761 14.0419 6.02489 14.1204C6.11404 15.0188 6.38208 15.8902 6.81322 16.6833C7.24436 17.4765 7.82988 18.1753 8.53528 18.7387C9.24068 19.302 10.0517 19.7185 10.9205 19.9636C11.7894 20.2086 12.6985 20.2773 13.5943 20.1656C14.4901 20.0539 15.3545 19.764 16.1366 19.3131C16.9186 18.8622 17.6025 18.2593 18.1479 17.5399C18.6934 16.8206 19.0893 15.9993 19.3125 15.1246C19.5356 14.2499 19.5815 13.3393 19.4473 12.4466L19.4495 12.4472Z" fill="#FDFDFD"/>
</g>
<defs>
<clipPath id="clip0_124_27">
<rect width="13.5306" height="13.5306" fill="white" transform="translate(6.22461 6.73474)"/>
</clipPath>
</defs>
</svg>
