<svg width="22" height="22" viewBox="0 0 22 22" fill="none" xmlns="http://www.w3.org/2000/svg">
<path d="M10.8026 5.60938C13.7558 5.60938 16.1933 8.04688 16.1933 11C16.1933 14 13.7558 16.3906 10.8026 16.3906C7.80264 16.3906 5.41201 14 5.41201 11C5.41201 8.04688 7.80264 5.60938 10.8026 5.60938ZM10.8026 14.5156C12.7245 14.5156 14.2714 12.9688 14.2714 11C14.2714 9.07812 12.7245 7.53125 10.8026 7.53125C8.83389 7.53125 7.28701 9.07812 7.28701 11C7.28701 12.9688 8.88076 14.5156 10.8026 14.5156ZM17.6464 5.42188C17.6464 6.125 17.0839 6.6875 16.3808 6.6875C15.6776 6.6875 15.1151 6.125 15.1151 5.42188C15.1151 4.71875 15.6776 4.15625 16.3808 4.15625C17.0839 4.15625 17.6464 4.71875 17.6464 5.42188ZM21.2089 6.6875C21.3026 8.42188 21.3026 13.625 21.2089 15.3594C21.1151 17.0469 20.7401 18.5 19.5214 19.7656C18.3026 20.9844 16.8026 21.3594 15.1151 21.4531C13.3808 21.5469 8.17764 21.5469 6.44326 21.4531C4.75576 21.3594 3.30264 20.9844 2.03701 19.7656C0.818262 18.5 0.443262 17.0469 0.349512 15.3594C0.255762 13.625 0.255762 8.42188 0.349512 6.6875C0.443262 5 0.818262 3.5 2.03701 2.28125C3.30264 1.0625 4.75576 0.6875 6.44326 0.59375C8.17764 0.5 13.3808 0.5 15.1151 0.59375C16.8026 0.6875 18.3026 1.0625 19.5214 2.28125C20.7401 3.5 21.1151 5 21.2089 6.6875ZM18.9589 17.1875C19.5214 15.8281 19.3808 12.5469 19.3808 11C19.3808 9.5 19.5214 6.21875 18.9589 4.8125C18.5839 3.92188 17.8808 3.17188 16.9901 2.84375C15.5839 2.28125 12.3026 2.42188 10.8026 2.42188C9.25576 2.42188 5.97451 2.28125 4.61514 2.84375C3.67764 3.21875 2.97451 3.92188 2.59951 4.8125C2.03701 6.21875 2.17764 9.5 2.17764 11C2.17764 12.5469 2.03701 15.8281 2.59951 17.1875C2.97451 18.125 3.67764 18.8281 4.61514 19.2031C5.97451 19.7656 9.25576 19.625 10.8026 19.625C12.3026 19.625 15.5839 19.7656 16.9901 19.2031C17.8808 18.8281 18.6308 18.125 18.9589 17.1875Z" fill="#181818"/>
</svg>
