<svg width="22" height="22" viewBox="0 0 22 22" fill="none" xmlns="http://www.w3.org/2000/svg">
<path d="M20.2724 0.5C21.0692 0.5 21.7724 1.20312 21.7724 2.04688V20C21.7724 20.8438 21.0692 21.5 20.2724 21.5H2.22549C1.42861 21.5 0.772364 20.8438 0.772364 20V2.04688C0.772364 1.20312 1.42861 0.5 2.22549 0.5H20.2724ZM7.10049 18.5V8.51562H4.00674V18.5H7.10049ZM5.55361 7.10938C6.53799 7.10938 7.33486 6.3125 7.33486 5.32812C7.33486 4.34375 6.53799 3.5 5.55361 3.5C4.52236 3.5 3.72549 4.34375 3.72549 5.32812C3.72549 6.3125 4.52236 7.10938 5.55361 7.10938ZM18.7724 18.5V13.0156C18.7724 10.3438 18.163 8.23438 15.0224 8.23438C13.5224 8.23438 12.4911 9.07812 12.0692 9.875H12.0224V8.51562H9.06924V18.5H12.163V13.5781C12.163 12.2656 12.3974 11 14.038 11C15.6317 11 15.6317 12.5 15.6317 13.625V18.5H18.7724Z" fill="#181818"/>
</svg>
