<svg width="26" height="26" viewBox="0 0 26 26" fill="none" xmlns="http://www.w3.org/2000/svg">
<rect width="26" height="26" rx="13" fill="#EDE4C0"/>
<path d="M21.6817 13.5107L15.043 20.1494C14.9075 20.2849 14.7238 20.3609 14.5323 20.3609C14.3408 20.3609 14.1571 20.2849 14.0216 20.1494C13.8862 20.014 13.8101 19.8303 13.8101 19.6387C13.8101 19.4472 13.8862 19.2635 14.0216 19.1281L19.4277 13.722L4.82953 13.7226C4.63788 13.7226 4.45408 13.6465 4.31857 13.511C4.18305 13.3754 4.10692 13.1916 4.10692 13C4.10692 12.8084 4.18305 12.6246 4.31857 12.489C4.45408 12.3535 4.63788 12.2774 4.82953 12.2774L19.4277 12.278L14.0216 6.87193C13.8862 6.73649 13.8101 6.5528 13.8101 6.36126C13.8101 6.16972 13.8862 5.98603 14.0216 5.85059C14.1571 5.71515 14.3408 5.63906 14.5323 5.63906C14.7238 5.63906 14.9075 5.71515 15.043 5.85059L21.6817 12.4893C21.8172 12.6248 21.8932 12.8085 21.8932 13C21.8932 13.1915 21.8172 13.3752 21.6817 13.5107Z" fill="#181818" stroke="#EDE4C0" stroke-width="0.300031"/>
</svg>
