<svg width="61" height="58" viewBox="0 0 61 58" fill="none" xmlns="http://www.w3.org/2000/svg">
<path d="M30.5 0.0539551L32.9222 18.2911L42.9055 2.57108L37.3477 20.172L53.1659 9.68724L40.5892 23.6085L59.5072 20.172L42.0861 28.0066L60.8329 32.2124L41.5798 32.6056L56.9138 43.7266L39.1576 36.6104L48.4275 52.7236L35.2385 39.3285L36.8413 57.6479L30.5 40.29L24.1587 57.6479L25.7615 39.3285L12.5725 52.7236L21.8424 36.6104L4.08623 43.7266L19.4202 32.6056L0.167082 32.2124L18.9139 28.0066L1.49278 20.172L20.4108 23.6085L7.83408 9.68724L23.6523 20.172L18.0945 2.57108L28.0778 18.2911L30.5 0.0539551Z" fill="#EDE4C0"/>
</svg>
