<svg width="46" height="45" viewBox="0 0 46 45" fill="none" xmlns="http://www.w3.org/2000/svg">
<rect x="0.5" width="45" height="45" rx="22.5" fill="#D1EDC0"/>
<path d="M36.5 21.2657V22.5077C36.4983 25.4189 35.5557 28.2515 33.8126 30.5832C32.0695 32.9148 29.6194 34.6206 26.8277 35.446C24.036 36.2714 21.0523 36.1723 18.3215 35.1634C15.5908 34.1545 13.2593 32.29 11.6748 29.8478C10.0903 27.4056 9.33772 24.5166 9.52926 21.6117C9.72081 18.7069 10.8462 15.9418 12.7377 13.7288C14.6291 11.5158 17.1853 9.97349 20.0249 9.33192C22.8644 8.69036 25.8354 8.98388 28.4945 10.1687" stroke="#181818" stroke-width="2" stroke-linecap="round" stroke-linejoin="round"/>
<path d="M36.5 12L22.6538 26L18.5 21.8042" stroke="#181818" stroke-width="2" stroke-linecap="round" stroke-linejoin="round"/>
</svg>
